{"accessors":[{"bufferView":2,"componentType":5126,"count":47962,"max":[45.297538757324219,67.674644470214844,47.085586547851562],"min":[-46.893898010253906,-71.661247253417969,-45.944065093994141],"type":"VEC3"},{"bufferView":2,"byteOffset":575544,"componentType":5126,"count":47962,"max":[0.99993646144866943,0.99960076808929443,0.99993634223937988],"min":[-0.99970054626464844,-0.99996566772460938,-0.99983716011047363],"type":"VEC3"},{"bufferView":1,"componentType":5126,"count":47962,"max":[1,1],"min":[0,0],"type":"VEC2"},{"bufferView":3,"componentType":5126,"count":47962,"max":[0.99972659349441528,0.99994641542434692,0.99994927644729614,1],"min":[-0.99982452392578125,-0.99951422214508057,-0.99987113475799561,-1],"type":"VEC4"},{"bufferView":0,"componentType":5125,"count":217518,"max":[47961],"min":[0],"type":"SCALAR"},{"bufferView":2,"byteOffset":1151088,"componentType":5126,"count":6183,"max":[78.648551940917969,55.173313140869141,31.522243499755859],"min":[-52.207130432128906,-66.6497802734375,-72.348052978515625],"type":"VEC3"},{"bufferView":2,"byteOffset":1225284,"componentType":5126,"count":6183,"max":[0.99370330572128296,0.99587440490722656,0.99972575902938843],"min":[-0.99787986278533936,-0.99677449464797974,-0.99991327524185181],"type":"VEC3"},{"bufferView":1,"byteOffset":383696,"componentType":5126,"count":6183,"max":[1,1],"min":[0,0],"type":"VEC2"},{"bufferView":3,"byteOffset":767392,"componentType":5126,"count":6183,"max":[0.99934959411621094,0.99989992380142212,0.99996978044509888,1],"min":[-0.99963688850402832,-0.99997085332870483,-0.93820768594741821,-1],"type":"VEC4"},{"bufferView":0,"byteOffset":870072,"componentType":5125,"count":20355,"max":[6182],"min":[0],"type":"SCALAR"},{"bufferView":2,"byteOffset":1299480,"componentType":5126,"count":712,"max":[195.24351501464844,51.163276672363281,14.989990234375],"min":[-168.743408203125,-53.761093139648438,-25.600673675537109],"type":"VEC3"},{"bufferView":2,"byteOffset":1308024,"componentType":5126,"count":712,"max":[0.95726168155670166,0.94331097602844238,0.99990427494049072],"min":[-0.97627508640289307,-0.99532163143157959,-0.81091815233230591],"type":"VEC3"},{"bufferView":0,"byteOffset":951492,"componentType":5125,"count":3135,"max":[711],"min":[0],"type":"SCALAR"},{"bufferView":2,"byteOffset":1316568,"componentType":5126,"count":712,"max":[195.24351501464844,51.163276672363281,14.989990234375],"min":[-168.743408203125,-53.761093139648438,-25.600673675537109],"type":"VEC3"},{"bufferView":2,"byteOffset":1325112,"componentType":5126,"count":712,"max":[0.95726168155670166,0.94331097602844238,0.99990427494049072],"min":[-0.97627508640289307,-0.99532163143157959,-0.81091815233230591],"type":"VEC3"},{"bufferView":0,"byteOffset":964032,"componentType":5125,"count":3135,"max":[711],"min":[0],"type":"SCALAR"},{"bufferView":2,"byteOffset":1333656,"componentType":5126,"count":950,"max":[103.64038848876953,263.62103271484375,134.4541015625],"min":[-103.64038848876953,-331.89358520507812,-159.40400695800781],"type":"VEC3"},{"bufferView":2,"byteOffset":1345056,"componentType":5126,"count":950,"max":[1,1,0.99977898597717285],"min":[-1,-1,-0.99550002813339233],"type":"VEC3"},{"bufferView":1,"byteOffset":433160,"componentType":5126,"count":950,"max":[1,1],"min":[0,0],"type":"VEC2"},{"bufferView":3,"byteOffset":866320,"componentType":5126,"count":950,"max":[0.99996894598007202,0.82266908884048462,1,1],"min":[-0.99999994039535522,-0.99231064319610596,-0.99943888187408447,1],"type":"VEC4"},{"bufferView":0,"byteOffset":976572,"componentType":5125,"count":2250,"max":[949],"min":[0],"type":"SCALAR"},{"bufferView":2,"byteOffset":1356456,"componentType":5126,"count":65532,"max":[136.65863037109375,39.026599884033203,4.3061370849609375],"min":[-126.75873565673828,-56.771884918212891,-4.5445117950439453],"type":"VEC3"},{"bufferView":2,"byteOffset":2142840,"componentType":5126,"count":65532,"max":[0.99998903274536133,0.9998631477355957,0.99871355295181274],"min":[-0.99999159574508667,-0.99992245435714722,-0.99871671199798584],"type":"VEC3"},{"bufferView":1,"byteOffset":440760,"componentType":5126,"count":65532,"max":[1,1],"min":[0,0],"type":"VEC2"},{"bufferView":3,"byteOffset":881520,"componentType":5126,"count":65532,"max":[0.99998724460601807,0.99992066621780396,0.99969327449798584,1],"min":[-0.99989902973175049,-0.99989348649978638,-0.99919295310974121,-1],"type":"VEC4"},{"bufferView":0,"byteOffset":985572,"componentType":5125,"count":125088,"max":[65531],"min":[0],"type":"SCALAR"},{"bufferView":2,"byteOffset":2929224,"componentType":5126,"count":2402,"max":[136.65863037109375,38.032634735107422,4.3061370849609375],"min":[-126.72132110595703,-55.061946868896484,-4.1691513061523438],"type":"VEC3"},{"bufferView":2,"byteOffset":2958048,"componentType":5126,"count":2402,"max":[0.84110939502716064,0.53859513998031616,0.99864739179611206],"min":[-0.081151090562343597,-0.67916065454483032,-0.9986499547958374],"type":"VEC3"},{"bufferView":1,"byteOffset":965016,"componentType":5126,"count":2402,"max":[0.98191410303115845,0.9782225489616394],"min":[0,0],"type":"VEC2"},{"bufferView":3,"byteOffset":1930032,"componentType":5126,"count":2402,"max":[0.9976499080657959,0.9939458966255188,0.079598799347877502,1],"min":[-0.99633073806762695,-0.99975287914276123,-0.091437265276908875,1],"type":"VEC4"},{"bufferView":0,"byteOffset":1485924,"componentType":5125,"count":6708,"max":[2401],"min":[0],"type":"SCALAR"},{"bufferView":2,"byteOffset":2986872,"componentType":5126,"count":49589,"max":[199.64765930175781,109.16812133789062,177.03782653808594],"min":[-81.516143798828125,-238.33627319335938,-170.98211669921875],"type":"VEC3"},{"bufferView":2,"byteOffset":3581940,"componentType":5126,"count":49589,"max":[1,1,1],"min":[-1,-1,-1],"type":"VEC3"},{"bufferView":1,"byteOffset":984232,"componentType":5126,"count":49589,"max":[1,1],"min":[0,0],"type":"VEC2"},{"bufferView":3,"byteOffset":1968464,"componentType":5126,"count":49589,"max":[1,0.99999886751174927,1,1],"min":[-1,-1,-1,-1],"type":"VEC4"},{"bufferView":0,"byteOffset":1512756,"componentType":5125,"count":170895,"max":[49588],"min":[0],"type":"SCALAR"},{"bufferView":2,"byteOffset":4177008,"componentType":5126,"count":4618,"max":[282.2916259765625,99.550140380859375,81.437332153320312],"min":[-282.29159545898438,-99.550140380859375,-81.437332153320312],"type":"VEC3"},{"bufferView":2,"byteOffset":4232424,"componentType":5126,"count":4618,"max":[0.9986456036567688,0.99996280670166016,1],"min":[-0.99162077903747559,-0.99996864795684814,-1],"type":"VEC3"},{"bufferView":1,"byteOffset":1380944,"componentType":5126,"count":4618,"max":[1,1],"min":[0,0],"type":"VEC2"},{"bufferView":3,"byteOffset":2761888,"componentType":5126,"count":4618,"max":[0.97746169567108154,0.99661928415298462,0.99999696016311646,1],"min":[-0.99284791946411133,-0.99922806024551392,-0.99999898672103882,1],"type":"VEC4"},{"bufferView":0,"byteOffset":2196336,"componentType":5125,"count":15822,"max":[4617],"min":[0],"type":"SCALAR"},{"bufferView":2,"byteOffset":4287840,"componentType":5126,"count":4467,"max":[129.34375,131.70838928222656,28.489627838134766],"min":[-129.29461669921875,-126.92999267578125,-18.698526382446289],"type":"VEC3"},{"bufferView":2,"byteOffset":4341444,"componentType":5126,"count":4467,"max":[1,1,0.99991393089294434],"min":[-1,-1,-0.99997985363006592],"type":"VEC3"},{"bufferView":1,"byteOffset":1417888,"componentType":5126,"count":4467,"max":[0.9823615550994873,1],"min":[0,0],"type":"VEC2"},{"bufferView":3,"byteOffset":2835776,"componentType":5126,"count":4467,"max":[1,1,1,1],"min":[-1,-0.99682372808456421,-1,1],"type":"VEC4"},{"bufferView":0,"byteOffset":2259624,"componentType":5125,"count":12318,"max":[4466],"min":[0],"type":"SCALAR"},{"bufferView":2,"byteOffset":4395048,"componentType":5126,"count":2824,"max":[128.94900512695312,131.99642944335938,22.679544448852539],"min":[-129.68937683105469,-126.64196014404297,-22.067028045654297],"type":"VEC3"},{"bufferView":2,"byteOffset":4428936,"componentType":5126,"count":2824,"max":[0.97598481178283691,0.98040848970413208,1],"min":[-0.97985363006591797,-0.97163200378417969,-1],"type":"VEC3"},{"bufferView":1,"byteOffset":1453624,"componentType":5126,"count":2824,"max":[1,0.999267578125],"min":[0,0],"type":"VEC2"},{"bufferView":3,"byteOffset":2907248,"componentType":5126,"count":2824,"max":[0.99975156784057617,0.99947470426559448,0.99966883659362793,1],"min":[-0.9393075704574585,-0.99974918365478516,-0.9991229772567749,1],"type":"VEC4"},{"bufferView":0,"byteOffset":2308896,"componentType":5125,"count":8646,"max":[2823],"min":[0],"type":"SCALAR"},{"bufferView":2,"byteOffset":4462824,"componentType":5126,"count":65532,"max":[343.07452392578125,217.66244506835938,90.548416137695312],"min":[-294.69924926757812,-117.93804168701172,-93.521675109863281],"type":"VEC3"},{"bufferView":2,"byteOffset":5249208,"componentType":5126,"count":65532,"max":[1,1,1],"min":[-1,-1,-1],"type":"VEC3"},{"bufferView":1,"byteOffset":1476216,"componentType":5126,"count":65532,"max":[1,1],"min":[0,0],"type":"VEC2"},{"bufferView":3,"byteOffset":2952432,"componentType":5126,"count":65532,"max":[1,1,1,1],"min":[-1,-1,-1,-1],"type":"VEC4"},{"bufferView":0,"byteOffset":2343480,"componentType":5125,"count":185235,"max":[65531],"min":[0],"type":"SCALAR"},{"bufferView":2,"byteOffset":6035592,"componentType":5126,"count":254,"max":[323.72195434570312,216.2408447265625,39.090045928955078],"min":[-244.21145629882812,-33.694343566894531,-36.359447479248047],"type":"VEC3"},{"bufferView":2,"byteOffset":6038640,"componentType":5126,"count":254,"max":[0.25727832317352295,0.9663349986076355,0.99886453151702881],"min":[-0.99936699867248535,-0.99755454063415527,-0.99886453151702881],"type":"VEC3"},{"bufferView":1,"byteOffset":2000472,"componentType":5126,"count":254,"max":[0.90080553293228149,0.98124396800994873],"min":[0.020425161346793175,0.21800319850444794],"type":"VEC2"},{"bufferView":3,"byteOffset":4000944,"componentType":5126,"count":254,"max":[0.99914580583572388,0.99984699487686157,0.66053891181945801,1],"min":[-0.99895280599594116,-0.99764871597290039,-0.37744247913360596,1],"type":"VEC4"},{"bufferView":0,"byteOffset":3084420,"componentType":5125,"count":708,"max":[253],"min":[0],"type":"SCALAR"}],"asset":{"generator":"Sketchfab (OSG glTF plugin)","version":"2.0"},"bufferViews":[{"buffer":0,"byteLength":3087252,"byteOffset":0,"name":"ScalarBufferView","target":34962},{"buffer":0,"byteLength":2002504,"byteOffset":3087252,"byteStride":8,"name":"Vec2BufferView","target":34962},{"buffer":0,"byteLength":6041688,"byteOffset":5089756,"byteStride":12,"name":"Vec3BufferView","target":34962},{"buffer":0,"byteLength":4005008,"byteOffset":11131444,"byteStride":16,"name":"Vec4BufferView","target":34962}],"buffers":[{"byteLength":15136452,"uri":"scene.bin"}],"images":[{"uri":"textures\/ForkAbsorber_baseColor.png"},{"uri":"textures\/ForkAbsorber_metallicRoughness.png"},{"uri":"textures\/DriveChain_baseColor.png"},{"uri":"textures\/DriveChain_metallicRoughness.png"},{"uri":"textures\/Rama_baseColor.png"},{"uri":"textures\/Rama_metallicRoughness.png"},{"uri":"textures\/FrontWheel_baseColor.png"},{"uri":"textures\/FrontWheel_metallicRoughness.png"},{"uri":"textures\/RearAbsorber_baseColor.png"},{"uri":"textures\/RearAbsorber_metallicRoughness.png"},{"uri":"textures\/Sceplenie_baseColor.png"},{"uri":"textures\/Sceplenie_metallicRoughness.png"},{"uri":"textures\/RearWheel_baseColor.png"},{"uri":"textures\/RearWheel_metallicRoughness.png"},{"uri":"textures\/FuelTank_baseColor.png"},{"uri":"textures\/FuelTank_metallicRoughness.png"},{"uri":"textures\/Muffler_baseColor.png"},{"uri":"textures\/Muffler_metallicRoughness.png"}],"materials":[{"doubleSided":true,"emissiveFactor":[0,0,0],"name":"RearAbsorber","occlusionTexture":{"index":9,"strength":1,"texCoord":0},"pbrMetallicRoughness":{"baseColorFactor":[1,1,1,1],"baseColorTexture":{"index":8,"texCoord":0},"metallicFactor":0,"roughnessFactor":0.82394172570000002}},{"doubleSided":true,"emissiveFactor":[0,0,0],"name":"Sceplenie","occlusionTexture":{"index":11,"strength":1,"texCoord":0},"pbrMetallicRoughness":{"baseColorFactor":[1,1,1,1],"baseColorTexture":{"index":10,"texCoord":0},"metallicFactor":0,"roughnessFactor":0.27877286590000006}},{"doubleSided":true,"emissiveFactor":[0,0,0],"name":"Tekst","pbrMetallicRoughness":{"baseColorFactor":[0.66186400000000001,0.66186400000000001,0.66186400000000001,1],"metallicFactor":0,"roughnessFactor":0.80417285059999999}},{"doubleSided":true,"emissiveFactor":[0,0,0],"name":"FuelTank","occlusionTexture":{"index":15,"strength":1,"texCoord":0},"pbrMetallicRoughness":{"baseColorFactor":[1,1,1,1],"baseColorTexture":{"index":14,"texCoord":0},"metallicFactor":0,"roughnessFactor":0.2665777439}},{"doubleSided":true,"emissiveFactor":[0,0,0],"name":"DriveChain","occlusionTexture":{"index":3,"strength":1,"texCoord":0},"pbrMetallicRoughness":{"baseColorFactor":[1,1,1,1],"baseColorTexture":{"index":2,"texCoord":0},"metallicFactor":0,"roughnessFactor":0.82394172570000002}},{"doubleSided":true,"emissiveFactor":[0,0,0],"name":"ForkAbsorber","occlusionTexture":{"index":1,"strength":1,"texCoord":0},"pbrMetallicRoughness":{"baseColorFactor":[1,1,1,1],"baseColorTexture":{"index":0,"texCoord":0},"metallicFactor":0,"roughnessFactor":0.35194359760000005}},{"doubleSided":true,"emissiveFactor":[0,0,0],"name":"Muffler","occlusionTexture":{"index":17,"strength":1,"texCoord":0},"pbrMetallicRoughness":{"baseColorFactor":[1,1,1,1],"baseColorTexture":{"index":16,"texCoord":0},"metallicFactor":0,"roughnessFactor":0.82394172570000002}},{"doubleSided":true,"emissiveFactor":[0,0,0],"name":"RearWheel","occlusionTexture":{"index":13,"strength":1,"texCoord":0},"pbrMetallicRoughness":{"baseColorFactor":[1,1,1,1],"baseColorTexture":{"index":12,"texCoord":0},"metallicFactor":0,"roughnessFactor":0.82394172570000002}},{"doubleSided":true,"emissiveFactor":[0,0,0],"name":"FrontWheel","occlusionTexture":{"index":7,"strength":1,"texCoord":0},"pbrMetallicRoughness":{"baseColorFactor":[1,1,1,1],"baseColorTexture":{"index":6,"texCoord":0},"metallicFactor":0,"roughnessFactor":0.82394172570000002}},{"doubleSided":true,"emissiveFactor":[0,0,0],"name":"Rama","occlusionTexture":{"index":5,"strength":1,"texCoord":0},"pbrMetallicRoughness":{"baseColorFactor":[1,1,1,1],"baseColorTexture":{"index":4,"texCoord":0},"metallicFactor":0.48951981709999998,"roughnessFactor":0.51048018290000008}}],"meshes":[{"name":"Rear absorber","primitives":[{"attributes":{"NORMAL":1,"POSITION":0,"TANGENT":3,"TEXCOORD_0":2},"indices":4,"material":0,"mode":4}]},{"name":"Sceplenie","primitives":[{"attributes":{"NORMAL":6,"POSITION":5,"TANGENT":8,"TEXCOORD_0":7},"indices":9,"material":1,"mode":4}]},{"name":"HondaRight","primitives":[{"attributes":{"NORMAL":11,"POSITION":10},"indices":12,"material":2,"mode":4}]},{"name":"HondaLeft","primitives":[{"attributes":{"NORMAL":14,"POSITION":13},"indices":15,"material":2,"mode":4}]},{"name":"Fuel tank","primitives":[{"attributes":{"NORMAL":17,"POSITION":16,"TANGENT":19,"TEXCOORD_0":18},"indices":20,"material":3,"mode":4}]},{"name":"Drive chain","primitives":[{"attributes":{"NORMAL":22,"POSITION":21,"TANGENT":24,"TEXCOORD_0":23},"indices":25,"material":4,"mode":4},{"attributes":{"NORMAL":27,"POSITION":26,"TANGENT":29,"TEXCOORD_0":28},"indices":30,"material":4,"mode":4}]},{"name":"Fork absorber","primitives":[{"attributes":{"NORMAL":32,"POSITION":31,"TANGENT":34,"TEXCOORD_0":33},"indices":35,"material":5,"mode":4}]},{"name":"Muffler","primitives":[{"attributes":{"NORMAL":37,"POSITION":36,"TANGENT":39,"TEXCOORD_0":38},"indices":40,"material":6,"mode":4}]},{"name":"Rear wheel","primitives":[{"attributes":{"NORMAL":42,"POSITION":41,"TANGENT":44,"TEXCOORD_0":43},"indices":45,"material":7,"mode":4}]},{"name":"Front wheel","primitives":[{"attributes":{"NORMAL":47,"POSITION":46,"TANGENT":49,"TEXCOORD_0":48},"indices":50,"material":8,"mode":4}]},{"name":"Honda_CB400","primitives":[{"attributes":{"NORMAL":52,"POSITION":51,"TANGENT":54,"TEXCOORD_0":53},"indices":55,"material":9,"mode":4},{"attributes":{"NORMAL":57,"POSITION":56,"TANGENT":59,"TEXCOORD_0":58},"indices":60,"material":9,"mode":4}]}],"nodes":[{"children":[1],"name":"RootNode (gltf orientation matrix)","rotation":[-0.70710678118654746,-0,-0,0.70710678118654757]},{"children":[2],"name":"RootNode (model correction matrix)"},{"children":[3],"matrix":[1,0,0,0,0,0,1,0,0,-1,0,0,0,0,0,1],"name":"8617bbdae8bc40a1a9d2d0cf51de34c6.fbx"},{"children":[4,6,8,10,12,14,16,18,20,22,24],"name":"RootNode"},{"children":[5],"matrix":[2.4353327894535748e-08,2.1345866120465881e-24,-0.32256960868835355,0,1.4099967706872655e-08,0.32256960868835416,1.0645179463945236e-15,0,0.32256960868835327,-1.4099967706872696e-08,2.4353327894535748e-08,0,101.56524658203125,72.652252197265625,75.336456298828125,1],"name":"Rear absorber"},{"mesh":0,"name":"Rear absorber"},{"children":[7],"matrix":[2.4353327894535748e-08,2.1345866120465881e-24,-0.32256960868835355,0,1.4099967706872655e-08,0.32256960868835416,1.0645179463945236e-15,0,0.32256960868835327,-1.4099967706872696e-08,2.4353327894535748e-08,0,117.29647827148438,55.493118286132812,6.882537841796875,1],"name":"Sceplenie"},{"mesh":1,"name":"Sceplenie"},{"children":[9],"matrix":[0.0036467820386455424,0.0012035110660273643,-0.042674625979198494,0,0.00041456017121084088,0.042827020283055336,0.0012432353466391519,0,0.042689587899173327,-0.00051870557179183442,0.0036334320672852466,0,125.59166717529297,115.83477783203125,-26.503067016601562,1],"name":"HondaRight"},{"mesh":2,"name":"HondaRight"},{"children":[11],"matrix":[0.0056516898620956272,0.0066585064655619352,0.041947516889253612,0,-0.001103537387686425,0.042326001270632331,-0.006569902642462727,0,-0.042458360783730692,-0.00021377426433895105,0.0057544503804877328,0,76.882362365722656,115.86122131347656,-27.498895645141602,1],"name":"HondaLeft"},{"mesh":3,"name":"HondaLeft"},{"children":[13],"matrix":[0.24064509570598602,0,0,0,0,-2.395107080648633e-08,-0.14701062440871998,0,0,0.14701062440871998,-2.395107080648633e-08,0,101.32228088378906,113.88768768310547,-19.299440383911133,1],"name":"Fuel tank"},{"mesh":4,"name":"Fuel tank"},{"children":[15],"matrix":[2.4353327894535748e-08,2.1345866120465881e-24,-0.32256960868835355,0,1.4099967706872655e-08,0.32256960868835416,1.0645179463945236e-15,0,0.32256960868835327,-1.4099967706872696e-08,2.4353327894535748e-08,0,94.46319580078125,49.484878540039062,65.010101318359375,1],"name":"Drive chain"},{"mesh":5,"name":"Drive chain"},{"children":[17],"matrix":[2.4353327894535748e-08,2.1345866120465881e-24,-0.32256960868835355,0,1.4099967706872655e-08,0.32256960868835416,1.0645179463945236e-15,0,0.32256960868835327,-1.4099967706872696e-08,2.4353327894535748e-08,0,101.33882904052734,111.904296875,-61.302516937255859,1],"name":"Fork absorber"},{"mesh":6,"name":"Fork absorber"},{"children":[19],"matrix":[2.4353327894535748e-08,2.1345866120465881e-24,-0.32256960868835355,0,1.4099967706872655e-08,0.32256960868835416,1.0645179463945236e-15,0,0.32256960868835327,-1.4099967706872696e-08,2.4353327894535748e-08,0,107.41980743408203,51.830928802490234,43.271942138671875,1],"name":"Muffler"},{"mesh":7,"name":"Muffler"},{"children":[21],"matrix":[2.4353327894535748e-08,2.1345866120465881e-24,-0.32256960868835355,0,1.4099967706872655e-08,0.32256960868835416,1.0645179463945236e-15,0,0.32256960868835327,-1.4099967706872696e-08,2.4353327894535748e-08,0,100.04556274414062,44.954132080078125,92.82635498046875,1],"name":"Rear wheel"},{"mesh":8,"name":"Rear wheel"},{"children":[23],"matrix":[2.362750452927786e-08,0.31295578600716889,0.078165391664039519,0,8.1986430906606311e-09,-0.078165391664040323,0.31295578600716945,0,0.32256960868835349,-2.0936609987009359e-08,-1.3679732443363655e-08,0,101.72971343994141,39.555530548095703,-101.13485717773438,1],"name":"Front wheel"},{"mesh":9,"name":"Front wheel"},{"children":[25],"matrix":[2.4353327894535748e-08,2.1345866120465881e-24,-0.32256960868835355,0,1.4099967706872655e-08,0.32256960868835416,1.0645179463945236e-15,0,0.32256960868835327,-1.4099967706872696e-08,2.4353327894535748e-08,0,101.54351806640625,66.11285400390625,42.810638427734375,1],"name":"Honda_CB400"},{"mesh":10,"name":"Honda_CB400"}],"samplers":[{"magFilter":9729,"minFilter":9987,"wrapS":10497,"wrapT":10497}],"scene":0,"scenes":[{"name":"OSG_Scene","nodes":[0]}],"textures":[{"sampler":0,"source":0},{"sampler":0,"source":1},{"sampler":0,"source":2},{"sampler":0,"source":3},{"sampler":0,"source":4},{"sampler":0,"source":5},{"sampler":0,"source":6},{"sampler":0,"source":7},{"sampler":0,"source":8},{"sampler":0,"source":9},{"sampler":0,"source":10},{"sampler":0,"source":11},{"sampler":0,"source":12},{"sampler":0,"source":13},{"sampler":0,"source":14},{"sampler":0,"source":15},{"sampler":0,"source":16},{"sampler":0,"source":17}]}
